HIERARCHY
ROOT Hips
{
	OFFSET 0.000000 0.000000 0.000000
	CHANNELS 6 Xposition Yposition Zposition Zrotation Yrotation Xrotation 
	JOINT LHipJoint
	{
		OFFSET 0.000000 0.000000 0.000000
		CHANNELS 3 Zrotation Yrotation Xrotation
		JOINT LeftUpLeg
		{
			OFFSET 1.363060 -1.794630 0.839290
			CHANNELS 3 Zrotation Yrotation Xrotation
			JOINT LeftLeg
			{
				OFFSET 2.448110 -6.726130 0.000000
				CHANNELS 3 Zrotation Yrotation Xrotation
				JOINT LeftFoot
				{
					OFFSET 2.562200 -7.039590 0.000000
					CHANNELS 3 Zrotation Yrotation Xrotation
					JOINT LeftToeBase
					{
						OFFSET 0.157640 -0.433110 2.322550
						CHANNELS 3 Zrotation Yrotation Xrotation
						End Site
						{
							OFFSET 0.000000 0.000000 0.000000
						}
					}
				}
			}
		}
	}
	JOINT RHipJoint
	{
		OFFSET 0.000000 0.000000 0.000000
		CHANNELS 3 Zrotation Yrotation Xrotation
		JOINT RightUpLeg
		{
			OFFSET -1.305520 -1.794630 0.839290
			CHANNELS 3 Zrotation Yrotation Xrotation
			JOINT RightLeg
			{
				OFFSET -2.542530 -6.985550 0.000000
				CHANNELS 3 Zrotation Yrotation Xrotation
				JOINT RightFoot
				{
					OFFSET -2.568260 -7.056230 0.000000
					CHANNELS 3 Zrotation Yrotation Xrotation
					JOINT RightToeBase
					{
						OFFSET -0.164730 -0.452590 2.363150
						CHANNELS 3 Zrotation Yrotation Xrotation
						End Site
						{
							OFFSET 0.000000 0.000000 0.000000
						}
					}
				}
			}
		}
	}
	JOINT LowerBack
	{
		OFFSET 0.000000 0.000000 0.000000
		CHANNELS 3 Zrotation Yrotation Xrotation
		JOINT Spine
		{
			OFFSET 0.028270 2.035590 -0.193380
			CHANNELS 3 Zrotation Yrotation Xrotation
			JOINT Spine1
			{
				OFFSET 0.056720 2.048850 -0.042750
				CHANNELS 3 Zrotation Yrotation Xrotation
				JOINT Neck
				{
					OFFSET 0.000000 0.000000 0.000000
					CHANNELS 3 Zrotation Yrotation Xrotation
					JOINT Neck1
					{
						OFFSET -0.054170 1.746240 0.172020
						CHANNELS 3 Zrotation Yrotation Xrotation
						JOINT Head
						{
							OFFSET 0.104070 1.761360 -0.123970
							CHANNELS 3 Zrotation Yrotation Xrotation
							End Site
							{
								OFFSET 0.000000 0.000000 0.000000
							}
						}
					}
				}
				JOINT LeftShoulder
				{
					OFFSET 0.000000 0.000000 0.000000
					CHANNELS 3 Zrotation Yrotation Xrotation
					JOINT LeftArm
					{
						OFFSET 3.362410 1.200890 -0.311210
						CHANNELS 3 Zrotation Yrotation Xrotation
						JOINT LeftForeArm
						{
							OFFSET 4.983000 -0.000000 -0.000000
							CHANNELS 3 Zrotation Yrotation Xrotation
							JOINT LeftHand
							{
								OFFSET 3.483560 -0.000000 -0.000000
								CHANNELS 3 Zrotation Yrotation Xrotation
								JOINT LeftFingerBase
								{
									OFFSET 0.000000 0.000000 0.000000
									CHANNELS 3 Zrotation Yrotation Xrotation
									JOINT LeftHandIndex1
									{
										OFFSET 0.715260 -0.000000 -0.000000
										CHANNELS 3 Zrotation Yrotation Xrotation
										End Site
										{
											OFFSET 0.000000 0.000000 0.000000
										}
									}
								}
								JOINT LThumb
								{
									OFFSET 0.000000 0.000000 0.000000
									CHANNELS 3 Zrotation Yrotation Xrotation
									End Site
									{
										OFFSET 0.000000 0.000000 0.000000
									}
								}
							}
						}
					}
				}
				JOINT RightShoulder
				{
					OFFSET 0.000000 0.000000 0.000000
					CHANNELS 3 Zrotation Yrotation Xrotation
					JOINT RightArm
					{
						OFFSET -3.136600 1.374050 -0.404650
						CHANNELS 3 Zrotation Yrotation Xrotation
						JOINT RightForeArm
						{
							OFFSET -5.241900 -0.000000 -0.000000
							CHANNELS 3 Zrotation Yrotation Xrotation
							JOINT RightHand
							{
								OFFSET -3.444170 -0.000000 -0.000000
								CHANNELS 3 Zrotation Yrotation Xrotation
								JOINT RightFingerBase
								{
									OFFSET 0.000000 0.000000 0.000000
									CHANNELS 3 Zrotation Yrotation Xrotation
									JOINT RightHandIndex1
									{
										OFFSET -0.622530 -0.000000 -0.000000
										CHANNELS 3 Zrotation Yrotation Xrotation
										End Site
										{
											OFFSET 0.000000 0.000000 0.000000
										}
									}
								}
								JOINT RThumb
								{
									OFFSET 0.000000 0.000000 0.000000
									CHANNELS 3 Zrotation Yrotation Xrotation
									End Site
									{
										OFFSET 0.000000 0.000000 0.000000
									}
								}
							}
						}
					}
				}
			}
		}
	}
}
MOTION
Frames: 11
Frame Time: 0.008333
-31.166046 17.457621 1.278214 89.412986 84.600921 84.288976 2.072059 -1.513631 0.175473 -24.010630 7.544394 10.789301 -1.862887 0.784997 0.931929 -0.562637 8.129739 -9.340350 0.252600 -3.233700 -8.930100 -5.060253 6.284648 -7.502316 12.927780 -15.327878 18.426299 -0.413376 -3.051202 3.949160 -0.607219 0.182435 -16.831950 -0.043900 -1.352600 3.719600 -6.064933 2.033258 8.647632 0.057447 2.451092 -2.126947 -1.235789 1.160458 2.828672 2.046991 3.987447 -17.404592 4.248949 4.760199 10.956309 -1.546500 2.816700 11.930100 6.823018 -0.798274 0.023560 -92.948189 -1.063233 35.924421 10.401790 -19.551584 -2.046498 -0.106406 0.762627 18.238311 16.176744 -25.150352 -7.360000 -7.125000 0.000000 0.000000 -8.000200 3.422800 7.583800 -6.452035 1.596554 1.793497 90.718453 -2.889711 38.543642 -17.876824 32.444960 -4.619689 0.247321 -2.748374 6.459181 -12.140466 -33.043165 6.491000 7.125000 0.000000 0.000000 21.197400 -59.531800 -7.734200 
-31.167071 17.457109 1.279341 89.307084 84.561781 84.177609 2.066569 -1.516491 0.184044 -24.046600 7.568148 10.768123 -1.861547 0.790944 0.944675 -0.553247 8.057867 -9.347828 0.257900 -3.267400 -9.024300 -5.054229 6.283103 -7.496553 12.883521 -15.282425 18.454760 -0.414864 -3.035391 3.917123 -0.608146 0.202296 -16.824827 -0.043500 -1.346300 3.702300 -6.159790 2.058806 8.760007 0.066764 2.465700 -2.160989 -1.152566 1.172953 2.660816 2.053087 3.996629 -17.379418 4.221809 4.776626 10.993546 -1.565300 2.825500 11.966800 6.828759 -0.814681 0.015634 -92.896762 -0.811061 36.395112 10.543810 -19.759387 -2.092578 -0.083386 0.749265 17.893917 15.111003 -25.098780 -6.838700 -7.125000 0.000000 0.000000 -8.659600 3.637600 8.188400 -6.440143 1.619777 1.791483 90.699037 -3.021336 38.537732 -17.940125 32.490090 -4.645278 0.241953 -2.748784 6.471559 -12.290076 -33.169504 6.590900 7.125000 0.000000 0.000000 21.140300 -59.679000 -7.787200 
-31.168096 17.458236 1.280673 89.506846 84.539123 84.373601 2.063213 -1.517093 0.181856 -24.061279 7.563320 10.770977 -1.860305 0.792039 0.945944 -0.538354 7.948557 -9.395901 0.255200 -3.250600 -8.977200 -5.055228 6.285451 -7.502444 12.872347 -15.272015 18.475508 -0.415377 -3.035007 3.918083 -0.609598 0.235801 -16.824164 -0.053700 -1.495800 4.114100 -6.194235 2.048822 8.736276 0.065401 2.455656 -2.143054 -1.145136 1.165652 2.716756 2.056452 3.973787 -17.300365 4.152131 4.737748 10.965657 -1.614900 2.800800 11.921200 6.831097 -0.814176 0.023634 -92.952408 -0.904430 36.185803 10.447175 -19.622880 -2.060869 -0.086149 0.750346 18.309623 15.344471 -24.999775 -6.924800 -7.125000 0.000000 0.000000 -8.506200 3.705000 8.029300 -6.437175 1.598308 1.792334 90.688452 -2.945405 38.585095 -17.926406 32.480065 -4.639323 0.238241 -2.746176 6.475513 -12.327921 -33.107387 6.596900 7.125000 0.000000 0.000000 21.058800 -59.631500 -7.731400 
-31.166354 17.457826 1.280878 89.207559 84.461310 84.099852 2.065943 -1.525163 0.178880 -24.168367 7.540028 10.772444 -1.863409 0.783351 0.913774 -0.535479 7.950241 -9.474991 0.244300 -3.181000 -8.783000 -5.041754 6.287246 -7.500875 12.763929 -15.247179 18.458871 -0.416624 -3.034723 3.930185 -0.613627 0.247835 -16.867848 -0.063800 -1.629400 4.482600 -6.285056 2.061264 8.687421 0.058626 2.470322 -2.143590 -1.133063 1.173943 2.719744 2.133514 4.034831 -17.252100 4.069539 4.794638 10.942209 -1.677600 2.823400 11.901700 6.838926 -0.822514 0.029546 -92.951502 -0.861967 36.049483 10.441777 -19.621411 -2.060334 -0.132129 0.771746 18.334397 17.292803 -25.073827 -7.873600 -7.125000 0.000000 0.000000 -7.300700 3.326500 6.922100 -6.428098 1.586685 1.794371 90.681946 -2.948881 38.630436 -17.955084 32.507033 -4.648954 0.242249 -2.747047 6.436682 -12.292311 -33.165174 6.590600 7.125000 0.000000 0.000000 21.137500 -59.676600 -7.784900 
-31.166251 17.460592 1.281800 89.416329 84.394034 84.206663 2.066743 -1.527229 0.176071 -24.236835 7.585656 10.867025 -1.862695 0.784336 0.913472 -0.536306 7.960226 -9.446852 0.229300 -3.082200 -8.507600 -5.032944 6.311141 -7.506266 12.585999 -15.381324 18.561556 -0.413220 -3.020702 3.892630 -0.611289 0.311862 -16.791248 -0.061100 -1.595200 4.388200 -6.376345 2.062520 8.800393 0.054905 2.466527 -2.132663 -1.110966 1.172824 2.692656 2.140543 4.041084 -17.187695 4.037606 4.796150 10.914975 -1.700900 2.820800 11.870400 6.839166 -0.829055 0.033786 -92.936800 -0.844090 36.231698 10.474669 -19.669748 -2.070407 -0.123661 0.760410 18.090415 16.718024 -24.862926 -7.539000 -7.125000 0.000000 0.000000 -7.640300 3.637100 7.205700 -6.426436 1.584565 1.798092 90.702625 -2.948281 38.609367 -17.946494 32.497262 -4.647525 0.238787 -2.748582 6.460623 -12.327347 -33.201638 6.614700 7.125000 0.000000 0.000000 21.129500 -59.716100 -7.801800 
-31.166046 17.459773 1.280161 89.824762 84.431866 84.595327 2.063160 -1.521499 0.176402 -24.206469 7.557152 10.894179 -1.863449 0.784974 0.917878 -0.543597 8.010414 -9.413677 0.248900 -3.210200 -8.864400 -5.046655 6.327815 -7.504510 12.536730 -15.579728 18.519883 -0.412391 -3.020597 3.875172 -0.605200 0.428139 -16.642264 -0.053700 -1.495200 4.112400 -6.315845 2.046022 8.822323 0.059785 2.446435 -2.131311 -1.136913 1.162741 2.698268 2.162585 4.081398 -17.226485 4.058432 4.851945 10.950708 -1.684500 2.850800 11.907100 6.840378 -0.826204 0.033987 -92.979358 -0.915713 36.050441 10.378568 -19.528255 -2.039275 -0.108585 0.765671 18.222235 16.324009 -25.242465 -7.454900 -7.125000 0.000000 0.000000 -7.916800 3.304800 7.520600 -6.431194 1.587942 1.796519 90.719567 -2.924483 38.556103 -17.877739 32.424280 -4.620494 0.232560 -2.744745 6.537543 -12.351637 -33.041474 6.595200 7.125000 0.000000 0.000000 20.987600 -59.576600 -7.676100 
-31.166149 17.459158 1.278316 90.286993 84.407859 85.094809 2.054666 -1.522444 0.178079 -24.233358 7.548926 10.831242 -1.863919 0.796611 0.940443 -0.546511 8.022713 -9.352493 0.289500 -3.460100 -9.562500 -5.054874 6.339206 -7.500888 12.451747 -15.696844 18.456923 -0.412246 -3.034840 3.912426 -0.606226 0.501399 -16.614812 -0.057700 -1.550700 4.265400 -6.326261 2.024792 8.783179 0.059307 2.419634 -2.135471 -1.132843 1.148048 2.716681 2.128241 4.082336 -17.260339 4.120728 4.873680 11.005685 -1.635900 2.867000 11.946900 6.836581 -0.815865 0.029634 -93.024815 -0.933663 35.968970 10.376968 -19.524360 -2.038770 -0.135594 0.775775 18.232366 17.430979 -25.192682 -7.974500 -7.125000 0.000000 0.000000 -7.225500 3.180300 6.869200 -6.437607 1.593221 1.793875 90.691758 -2.914104 38.591078 -17.860594 32.403660 -4.612022 0.227283 -2.739727 6.550223 -12.428458 -32.926026 6.610600 7.125000 0.000000 0.000000 20.828300 -59.489900 -7.571100 
-31.165842 17.461002 1.278009 90.211471 84.342562 85.010096 2.058363 -1.529640 0.172707 -24.300760 7.611763 10.817145 -1.862008 0.801987 0.946165 -0.545809 8.007503 -9.270396 0.270200 -3.343500 -9.236500 -5.046164 6.359432 -7.498358 12.254157 -15.863711 18.428486 -0.412041 -3.058172 3.976752 -0.611889 0.681911 -16.591164 -0.078700 -1.809700 4.980000 -6.393451 2.030956 8.779256 0.051927 2.428509 -2.128052 -1.113298 1.150591 2.733598 2.079781 4.077308 -17.219942 4.174740 4.880823 10.994639 -1.593700 2.871600 11.921500 6.827608 -0.810096 0.030714 -93.022968 -0.933857 35.986813 10.368796 -19.512806 -2.035481 -0.106908 0.758682 18.216126 16.120674 -25.024099 -7.299400 -7.125000 0.000000 0.000000 -8.024700 3.562600 7.586600 -6.438535 1.592387 1.796917 90.657768 -2.921039 38.665885 -17.899456 32.446072 -4.629338 0.219415 -2.739559 6.539949 -12.587139 -33.005996 6.704500 7.125000 0.000000 0.000000 20.729500 -59.596100 -7.586300 
-31.166046 17.460387 1.278829 90.153249 84.341965 84.908693 2.064204 -1.529161 0.172428 -24.289183 7.664578 10.851258 -1.859520 0.801872 0.949652 -0.536540 7.942446 -9.315324 0.237600 -3.136700 -8.659600 -5.035518 6.362894 -7.500288 12.229807 -15.854406 18.482515 -0.413885 -3.054020 3.967842 -0.618232 0.820777 -16.599582 -0.109800 -2.136100 5.882100 -6.344890 2.026557 8.836694 0.033220 2.426142 -2.124298 -1.225543 1.157085 2.712068 2.155655 4.078154 -17.141627 4.173717 4.851062 10.962084 -1.612400 2.865700 11.881000 6.821136 -0.812526 0.033891 -92.907101 -0.926814 36.086929 10.372757 -19.512607 -2.035944 -0.122033 0.763213 18.111077 16.655656 -24.967163 -7.539000 -7.125000 0.000000 0.000000 -7.687000 3.538100 7.264700 -6.446659 1.593553 1.801858 90.748266 -2.931740 38.650312 -17.899685 32.467380 -4.635950 0.209012 -2.746500 6.604586 -12.724795 -33.090574 6.788500 7.125000 0.000000 0.000000 20.648700 -59.696300 -7.605000 
-31.167686 17.453625 1.280366 90.723771 84.389182 85.576048 2.043279 -1.523621 0.185241 -24.197240 7.633110 10.705038 -1.859000 0.821792 1.002905 -0.532208 7.898220 -9.331127 0.241700 -3.164100 -8.735800 -5.056694 6.332560 -7.501302 12.474260 -15.592236 18.451930 -0.417775 -3.027612 3.906468 -0.619872 0.660764 -16.707384 -0.098400 -2.022800 5.568700 -6.356287 2.001951 8.773189 0.054528 2.386433 -2.143365 -1.148250 1.136303 2.681198 2.171183 4.058251 -17.117427 4.121938 4.819993 10.977647 -1.654700 2.850400 11.888700 6.831394 -0.817873 0.031227 -92.961045 -0.889334 36.060092 10.382360 -19.533136 -2.039932 -0.134898 0.769108 18.114300 17.222456 -24.995995 -7.817900 -7.125000 0.000000 0.000000 -7.337100 3.418600 6.944600 -6.436117 1.592346 1.798567 90.694699 -2.971417 38.618419 -17.909072 32.461709 -4.638732 0.207704 -2.742468 6.601806 -12.759776 -33.086790 6.805700 7.125000 0.000000 0.000000 20.614100 -59.703700 -7.595200 
-31.162973 17.454035 1.276985 90.248325 84.447602 85.122765 2.057083 -1.522144 0.174245 -24.193933 7.564653 10.776049 -1.863631 0.794994 0.936438 -0.543219 8.007688 -9.427869 0.217000 -2.999000 -8.276100 -5.053356 6.329034 -7.506187 12.529637 -15.590328 18.427385 -0.418067 -3.037744 3.925118 -0.618401 0.660699 -16.694110 -0.071800 -1.728500 4.756000 -6.241966 1.989954 8.623272 0.048653 2.390839 -2.111987 -1.220508 1.132814 2.845127 2.175282 4.084614 -17.104365 4.143578 4.848612 10.927559 -1.637700 2.861200 11.835800 6.827523 -0.803781 0.040972 -92.948744 -0.977249 35.964552 10.358725 -19.503154 -2.032254 -0.123834 0.764429 18.127160 16.684383 -25.038417 -7.572800 -7.125000 0.000000 0.000000 -7.673900 3.461000 7.263200 -6.441191 1.565173 1.802763 90.715820 -2.862375 38.573147 -17.903653 32.481175 -4.638182 0.222881 -2.748818 6.442771 -12.552339 -33.153517 6.713800 7.125000 0.000000 0.000000 20.871200 -59.716000 -7.701200 
